{"title":"Tanner.Hall.2009.LIMITED.BDRip.XviD-CODEC","uid":8184609,"size":737640597,"categoryP":"video","categoryS":"movies","magnet":"?xt=urn:btih:7bdb052039ab9b1ff145d3403ec04fdf72b13d35&amp;dn=Tanner.Hall.2009.LIMITED.BDRip.XviD-CODEC&amp;tr=udp%3A%2F%2Ftracker.openbittorrent.com%3A80&amp;tr=udp%3A%2F%2Fopen.demonii.com%3A1337&amp;tr=udp%3A%2F%2Ftracker.coppersurfer.tk%3A6969&amp;tr=udp%3A%2F%2Fexodus.desync.com%3A6969","seeders":1,"leechers":0,"uploader":"elohei","files":2,"time":1361704156,"description":"General \nComplete name : Tanner.Hall.2009.LIMITED.BDRip.XviD-CODEC\nFormat : AVI \nFormat/Info : Audio Video Interleave \nFile size : 703 MiB \nDuration : 1h 35mn \nOverall bit rate : 1 032 Kbps \nWriting application : Nandub v1.0rc2 \nWriting library : VirtualDub build 32842/release \n\nVideo \nID : 0 \nFormat : MPEG-4 Visual \nFormat profile : Advanced Simple@L5 \nFormat settings, BVOP : 1 \nFormat settings, QPel : No \nFormat settings, GMC : No warppoints \nFormat settings, Matrix : Default (H.263) \nMuxing mode : Packed bitstream \nCodec ID : DX50 \nCodec ID/Hint : DivX 5 \nDuration : 1h 35mn \nBit rate : 895 Kbps \nWidth : 640 pixels \nHeight : 356 pixels \nDisplay aspect ratio : 16:9 \nFrame rate : 23.976 fps \nColor space : YUV \nChroma subsampling : 4:2:0 \nBit depth : 8 bits \nScan type : Progressive \nCompression mode : Lossy \nBits/(Pixel*Frame) : 0.164 \nStream size : 610 MiB (87%) \nWriting library : XviD 64 \n\nAudio \nID : 1 \nFormat : MPEG Audio \nFormat version : Version 1 \nFormat profile : Layer 3 \nMode : Joint stereo \nMode extension : MS Stereo \nCodec ID : 55 \nCodec ID/Hint : MP3 \nDuration : 1h 35mn \nBit rate mode : Constant \nBit rate : 128 Kbps \nChannel(s) : 2 channels \nSampling rate : 48.0 KHz \nCompression mode : Lossy \nStream size : 87.2 MiB (12%) \nAlignment : Split accross interleaves \nInterleave, duration : 42 ms (1.00 video frame) \nInterleave, preload duration : 500 ms \n\n","torrent":{"xt":"urn:btih:7bdb052039ab9b1ff145d3403ec04fdf72b13d35","amp;dn":"Tanner.Hall.2009.LIMITED.BDRip.XviD-CODEC","amp;tr":["udp%3A%2F%2Ftracker.openbittorrent.com%3A80","udp%3A%2F%2Fopen.demonii.com%3A1337","udp%3A%2F%2Ftracker.coppersurfer.tk%3A6969","udp%3A%2F%2Fexodus.desync.com%3A6969"],"infoHash":"7bdb052039ab9b1ff145d3403ec04fdf72b13d35","infoHashBuffer":{"type":"Buffer","data":[123,219,5,32,57,171,155,31,241,69,211,64,62,192,79,223,114,177,61,53]},"announce":[],"urlList":[]}}